<svg width="24" height="24" viewBox="0 0 24 24" fill="none" xmlns="http://www.w3.org/2000/svg">
<path d="M10.8557 13.1444C9.68566 11.9744 8.80366 10.6644 8.21766 9.33536C8.09366 9.05436 8.16666 8.72536 8.38366 8.50836L9.20266 7.69036C9.87366 7.01936 9.87366 6.07036 9.28766 5.48436L8.11366 4.31036C7.33266 3.52936 6.06666 3.52936 5.28566 4.31036L4.63366 4.96236C3.89266 5.70336 3.58366 6.77236 3.78366 7.83236C4.27766 10.4454 5.79566 13.3064 8.24466 15.7554C10.6937 18.2044 13.5547 19.7224 16.1677 20.2164C17.2277 20.4164 18.2967 20.1074 19.0377 19.3664L19.6887 18.7154C20.4697 17.9344 20.4697 16.6684 19.6887 15.8874L18.5157 14.7144C17.9297 14.1284 16.9797 14.1284 16.3947 14.7144L15.4917 15.6184C15.2747 15.8354 14.9457 15.9084 14.6647 15.7844C13.3357 15.1974 12.0257 14.3144 10.8557 13.1444V13.1444Z" stroke="#DFDFDF" stroke-width="1.5" stroke-linecap="round" stroke-linejoin="round"/>
</svg>
